<?xml version="1.0" encoding="utf-8"?>
<!-- Generator: Adobe Illustrator 23.0.3, SVG Export Plug-In . SVG Version: 6.00 Build 0)  -->
<svg version="1.1" id="Layer_1" xmlns="http://www.w3.org/2000/svg" xmlns:xlink="http://www.w3.org/1999/xlink" x="0px" y="0px"
	 width="576.1px" height="811.4px" viewBox="0 0 576.1 811.4" style="enable-background:new 0 0 576.1 811.4;" xml:space="preserve"
	>
<style type="text/css">
	.st0{fill:#34A752;}
	.st1{fill:#F9BA05;}
	.st2{fill:#4285F3;}
	.st3{fill:#E94335;}
	.st4{fill:#1A73E7;}
	.st5{fill:#F9BC23;}
</style>
<g>
	<path class="st0" d="M543.1,152.4c5.7,12.5,12.1,24.7,16.8,37.6c13.6,37.1,17.8,75.5,15.6,114.9c-3.4,63.6-25.8,120.1-61.6,172
		c-21.2,30.7-45.3,59.2-68.4,88.5c-22.3,28.2-44.1,56.8-65.5,85.7c-26.8,36.2-46.2,76.1-59,119.3c-2.6,8.9-6.1,17.6-9.8,26.1
		c-3.3,7.5-8.9,12.7-17.4,14.3c-12.2,2.3-22.1-1.8-27.5-12.9c-3.9-8-7.1-16.5-9.4-25.1c-14.3-52.4-40.8-98.4-73.2-141.4
		c-7.8-10.4-15.6-20.7-23.3-31.1c19.9-23.3,39.9-46.5,59.8-69.8c42.6-49.9,85.3-99.8,127.8-149.7c4.3-5,8.1-10.3,12.2-15.5
		c0,0-0.1,0-0.1,0c0.4-0.5,0.7-1,1.1-1.5c6.6-7.5,13.1-14.9,19.7-22.4c0.5-0.7,0.9-1.4,1.4-2.1l0,0.1c0.3-0.4,0.6-0.7,0.9-1.1l0,0.1
		c0.9-0.6,1.9-1.1,2.6-1.9c14.2-16.5,28.3-33.1,42.5-49.6c18.7-21.9,37.5-43.7,56.2-65.5C504,198.2,523.5,175.3,543.1,152.4z"/>
	<path class="st1" d="M360.2,365.2c-4.1,5.2-7.9,10.5-12.2,15.5c-42.6,49.9-85.2,99.8-127.8,149.7c-19.9,23.3-39.9,46.5-59.8,69.8
		c-9.6-11.7-19.2-23.3-28.7-35.1c-23.2-28.5-46.9-56.6-67.8-86.8c-12.3-17.8-23.5-36.2-32.9-55.7c-0.8-1.6-1.3-3.4-1.9-5.1
		c2.9-3.2,5.9-6.3,8.7-9.6c13.1-15.3,26.1-30.6,39.2-45.9c10.6-12.4,21.2-24.7,31.8-37.1c13-15.2,25.9-30.4,38.8-45.5
		c11-12.9,21.9-25.9,33-38.7c3.7-4.3,7.9-8.2,11.9-12.4c-0.6,1.6-1.1,3.4-1.9,4.9c-12.6,24.6-16,50.3-8.7,77
		c20.5,75.2,111.2,105.5,174.3,57.4C357.3,366.7,358.8,366,360.2,365.2z"/>
	<path class="st2" d="M543.1,152.4c-19.6,22.9-39.1,45.8-58.7,68.7c-18.7,21.9-37.4,43.7-56.2,65.5c-14.2,16.5-28.3,33.1-42.5,49.6
		c-0.7,0.8-1.7,1.3-2.6,1.9c0.8-1.8,1.4-3.7,2.3-5.4c12.8-24.7,16-50.6,8.8-77.4c-19.6-72.2-103.5-102.5-165.7-63.4
		c-4.2,2.6-8.2,5.6-12.3,8.4c1.3-2.2,2.2-4.7,3.9-6.7c6.6-7.9,13.5-15.5,20.2-23.3c10.5-12.4,20.8-24.9,31.4-37.2
		c9-10.6,18.4-20.9,27.4-31.5c12.6-14.7,25-29.6,37.5-44.4c12.4-14.7,25-29.2,37.5-43.9c13,4.9,26.4,9,39,14.9
		c55,26,97.5,65.8,127.5,118.8C541.6,148.8,542.3,150.6,543.1,152.4z"/>
	<path class="st3" d="M192.4,228.3c-4,4.1-8.2,8-11.9,12.4c-11.1,12.8-22,25.8-33,38.7c-12.9,15.2-25.9,30.4-38.8,45.5
		C98,337.3,87.4,349.6,76.8,362c-13.1,15.3-26.1,30.6-39.2,45.9c-2.8,3.3-5.8,6.4-8.7,9.6c-7.8-15.1-13.3-31.2-17.8-47.5
		c-9-32.5-12.5-65.8-10.8-99.4c3-62.7,24.9-118.4,64.9-166.8c0.6-0.8,1.4-1.4,2.1-2.1c20,16.5,40.1,32.9,60.1,49.4
		c25.3,20.8,50.6,41.6,75.9,62.4c-2.4,3.2-4.7,6.4-7.1,9.6c-0.4,0.4-0.8,0.8-1.2,1.2l0.1,0c-0.7,0.7-1.4,1.3-2.1,2
		c-0.3,0.7-0.6,1.4-0.9,2.1C192.2,228.3,192.4,228.3,192.4,228.3z"/>
	<path class="st4" d="M203.5,213.5c-25.3-20.8-50.6-41.6-75.9-62.4c-20-16.5-40.1-32.9-60.1-49.4c5.6-6.2,10.8-12.6,16.7-18.4
		c42.9-42.1,94.2-68.4,153.3-78.8c45.1-8,89.8-5.2,133.8,7.8c1,0.3,1.9,0.7,2.8,1c-12.5,14.6-25,29.2-37.5,43.9
		c-12.5,14.8-25,29.7-37.5,44.4c-9,10.6-18.4,20.9-27.4,31.5c-10.5,12.3-20.9,24.9-31.4,37.2c-6.7,7.8-13.5,15.5-20.2,23.3
		c-1.6,1.9-2.6,4.4-3.9,6.7C212,204.8,207.7,209.1,203.5,213.5z"/>
	<path class="st2" d="M380.9,341.3c0.5-0.7,0.9-1.4,1.4-2.1C381.8,339.9,381.3,340.6,380.9,341.3z"/>
	<path class="st2" d="M382.2,339.3c0.3-0.4,0.6-0.7,0.9-1.1C382.8,338.5,382.5,338.9,382.2,339.3z"/>
	<path class="st1" d="M360.1,365.2c0.4-0.5,0.7-1,1.1-1.5C360.8,364.2,360.5,364.7,360.1,365.2z"/>
	<path class="st1" d="M194.3,226.2c-0.7,0.7-1.4,1.4-2.1,2.1c0.3-0.7,0.6-1.4,0.9-2.1C193.5,226.2,193.9,226.2,194.3,226.2z"/>
	<path class="st5" d="M194.3,226.2c-0.4,0-0.8,0-1.2,0c0.7-0.7,1.4-1.3,2.1-2C194.9,224.9,194.6,225.5,194.3,226.2z"/>
	<path class="st5" d="M196.4,223.1c-0.4,0.4-0.8,0.8-1.2,1.2C195.6,223.8,196,223.5,196.4,223.1z"/>
</g>
</svg>
